<svg width="32" height="32" viewBox="0 0 32 32" fill="none" xmlns="http://www.w3.org/2000/svg">
<rect width="32" height="32" rx="8" fill="#F3F5F8"/>
<path d="M22.4166 14.5C22.4166 19.75 16 24.25 16 24.25C16 24.25 9.58331 19.75 9.58331 14.5C9.58331 12.7098 10.2594 10.9929 11.4627 9.72703C12.6661 8.46116 14.2982 7.75 16 7.75C17.7018 7.75 19.3339 8.46116 20.5373 9.72703C21.7406 10.9929 22.4166 12.7098 22.4166 14.5Z" stroke="#8F96A1" stroke-width="2" stroke-linecap="round" stroke-linejoin="round"/>
<path d="M16 16.9165C17.5188 16.9165 18.75 15.6853 18.75 14.1665C18.75 12.6477 17.5188 11.4165 16 11.4165C14.4812 11.4165 13.25 12.6477 13.25 14.1665C13.25 15.6853 14.4812 16.9165 16 16.9165Z" stroke="#8F96A1" stroke-width="2" stroke-linecap="round" stroke-linejoin="round"/>
</svg>
