<svg width="40" height="40" viewBox="0 0 40 40" fill="none" xmlns="http://www.w3.org/2000/svg">
<path d="M0 12C0 5.37258 5.37258 0 12 0H28C34.6274 0 40 5.37258 40 12V28C40 34.6274 34.6274 40 28 40H12C5.37258 40 0 34.6274 0 28V12Z" fill="#F3F5F8"/>
<path d="M27 18.3636C27 24.0909 20 29 20 29C20 29 13 24.0909 13 18.3636C13 16.4107 13.7375 14.5377 15.0503 13.1568C16.363 11.7758 18.1435 11 20 11C21.8565 11 23.637 11.7758 24.9497 13.1568C26.2625 14.5377 27 16.4107 27 18.3636Z" stroke="#8F96A1" stroke-width="2" stroke-linecap="round" stroke-linejoin="round"/>
<path d="M20 21C21.6569 21 23 19.6569 23 18C23 16.3431 21.6569 15 20 15C18.3431 15 17 16.3431 17 18C17 19.6569 18.3431 21 20 21Z" stroke="#8F96A1" stroke-width="2" stroke-linecap="round" stroke-linejoin="round"/>
</svg>
